# xmcd
#
# Track frame offsets:
# 182
# 20205
# 37547
# 57037
# 77497
# 100475
# 120680
# 142275
# 165380
# 186092
#
# Disc length: 2759 seconds
#
#
# Revision: 0
# Processed by: cddbd v1.5.2PL0 Copyright (c) Steve Scherf et al.
# Submitted via: FreeRIP 2.944 
#
DISCID=7d0ac50a
DTITLE=Joe Cocker - WoodStock '94
DYEAR=1994
DGENRE=Blues
TTITLE0=Feeling Alright
TTITLE1=Hitchcock Railway
TTITLE2=You Can Leave Your Heat On
TTITLE3=When The Night Comes
TTITLE4=The Simple Things
TTITLE5=UP Where We Belong
TTITLE6=Shelter Me
TTITLE7=Unchain My Heart
TTITLE8=The Letter
TTITLE9=With A Little Help From My Friends
EXTD=
EXTT0=
EXTT1=
EXTT2=
EXTT3=
EXTT4=
EXTT5=
EXTT6=
EXTT7=
EXTT8=
EXTT9=
PLAYORDER=
